<!DOCTYPE svg PUBLIC "-//W3C//DTD SVG 1.1//EN" "http://www.w3.org/Graphics/SVG/1.1/DTD/svg11.dtd">
<!-- Uploaded to: SVG Repo, www.svgrepo.com, Transformed by: SVG Repo Mixer Tools -->
<svg fill="#000000" height="256px" width="256px" version="1.1" id="Capa_1" xmlns="http://www.w3.org/2000/svg" xmlns:xlink="http://www.w3.org/1999/xlink" viewBox="-28.34 -28.34 340.04 340.04" xml:space="preserve" stroke="#000000" stroke-width="0.00283358" transform="rotate(0)">
<g id="SVGRepo_bgCarrier" stroke-width="0"/>
<g id="SVGRepo_tracerCarrier" stroke-linecap="round" stroke-linejoin="round" stroke="#CCCCCC" stroke-width="1.133432"/>
<g id="SVGRepo_iconCarrier"> <g> <path d="M142.156,139.642c-3.494,0-6.359,0.189-8.596,0.461c-2.363,0.287-4.13,2.289-4.13,4.67v32.209 c0,2.455,1.888,4.501,4.336,4.691c1.724,0.134,3.686,0.186,5.966,0.186c16.361,0,26.462-8.281,26.462-22.219 C166.194,147.116,157.507,139.642,142.156,139.642z"/> <path d="M261.022,112.908L152.664,4.551c-6.067-6.067-15.903-6.067-21.971,0L22.336,112.908c-2.958,2.958-3.843,7.407-2.242,11.271 c1.602,3.865,5.373,6.386,9.557,6.386H52.97v137.258c0,8.58,6.955,15.535,15.535,15.535h146.348c8.58,0,15.535-6.955,15.535-15.535 V130.565h23.319c4.184,0,7.955-2.521,9.557-6.386C264.865,120.315,263.98,115.866,261.022,112.908z M184.171,191.151 c-10.504,9.898-26.058,14.342-44.237,14.342c-4.04,0-7.676-0.202-10.504-0.605v33.431c0,8.422-6.828,15.25-15.251,15.25 c-8.422,0-15.25-6.828-15.25-15.25v-105.63c0-7.896,6.027-14.497,13.893-15.19c7.586-0.669,16.717-1.085,27.719-1.085 c18.987,0,32.521,3.636,41.61,10.908c8.686,6.867,14.544,18.18,14.544,31.511C196.695,172.164,192.251,183.475,184.171,191.151z M213.35,104.292c-1.465,1.464-3.385,2.196-5.304,2.196c-1.919,0-3.839-0.732-5.304-2.196l-61.064-61.064l-61.063,61.064 c-2.93,2.928-7.678,2.928-10.607,0c-2.929-2.93-2.929-7.678,0-10.607l66.367-66.367c2.93-2.928,7.678-2.928,10.607,0l66.367,66.367 C216.279,96.614,216.279,101.362,213.35,104.292z"/> </g> </g>
</svg>